<svg width="40" height="46" viewBox="0 0 40 46" fill="none" xmlns="http://www.w3.org/2000/svg">
<g clip-path="url(#clip0_2_21)">
<path d="M20 18.2077C19.0581 18.2081 18.1375 18.4895 17.3546 19.0163C16.5716 19.543 15.9615 20.2916 15.6013 21.1673C15.2411 22.043 15.147 23.0065 15.331 23.936C15.515 24.8655 15.9687 25.7192 16.6348 26.3893C17.3009 27.0593 18.1495 27.5156 19.0733 27.7003C19.9971 27.8851 20.9546 27.7901 21.8247 27.4273C22.6949 27.0645 23.4386 26.4503 23.9618 25.6623C24.485 24.8742 24.7643 23.9477 24.7643 23C24.7633 21.729 24.261 20.5103 23.3677 19.6118C22.4744 18.7132 21.2631 18.2082 20 18.2077ZM31.1348 14.5241C30.8924 13.9059 30.5263 13.3443 30.0592 12.8743C29.5921 12.4044 29.0341 12.036 28.4196 11.792C26.5446 11.0472 22.0804 11.2143 20 11.2143C17.9196 11.2143 13.4598 11.0409 11.5795 11.792C10.965 12.036 10.407 12.4044 9.93992 12.8743C9.47285 13.3443 9.10674 13.9059 8.86429 14.5241C8.125 16.4109 8.29018 20.9075 8.29018 22.9991C8.29018 25.0907 8.125 29.582 8.86786 31.475C9.11031 32.0932 9.47642 32.6548 9.94349 33.1248C10.4106 33.5947 10.9686 33.9631 11.583 34.2071C13.458 34.9519 17.9223 34.7848 20.0036 34.7848C22.0848 34.7848 26.5429 34.9582 28.4232 34.2071C29.0376 33.9631 29.5957 33.5947 30.0628 33.1248C30.5298 32.6548 30.8959 32.0932 31.1384 31.475C31.8839 29.5882 31.7125 25.0916 31.7125 23C31.7125 20.9084 31.8839 16.418 31.1384 14.525L31.1348 14.5241ZM20 30.3672C18.552 30.3672 17.1364 29.9351 15.9324 29.1256C14.7284 28.3161 13.79 27.1655 13.2359 25.8193C12.6817 24.4731 12.5368 22.9918 12.8193 21.5627C13.1018 20.1336 13.799 18.8209 14.823 17.7906C15.8469 16.7603 17.1514 16.0586 18.5717 15.7744C19.9919 15.4901 21.464 15.636 22.8018 16.1936C24.1396 16.7512 25.2831 17.6955 26.0875 18.907C26.892 20.1185 27.3214 21.5429 27.3214 23C27.3226 23.9678 27.134 24.9263 26.7665 25.8207C26.399 26.7151 25.8597 27.5277 25.1797 28.212C24.4996 28.8964 23.692 29.439 22.8032 29.8088C21.9144 30.1786 20.9618 30.3684 20 30.3672ZM27.6232 17.0434C27.2852 17.0435 26.9547 16.9428 26.6735 16.754C26.3924 16.5651 26.1732 16.2966 26.0437 15.9824C25.9143 15.6682 25.8803 15.3225 25.9461 14.9888C26.012 14.6552 26.1746 14.3487 26.4136 14.1081C26.6526 13.8675 26.9571 13.7037 27.2886 13.6372C27.6201 13.5708 27.9638 13.6048 28.2761 13.735C28.5884 13.8651 28.8554 14.0855 29.0432 14.3683C29.231 14.6511 29.3313 14.9836 29.3313 15.3237C29.3322 15.5496 29.2888 15.7735 29.2036 15.9824C29.1184 16.1914 28.993 16.3814 28.8346 16.5415C28.6763 16.7016 28.488 16.8286 28.2808 16.9154C28.0735 17.0021 27.8513 17.0468 27.6268 17.047L27.6232 17.0434ZM35.7143 2.875H4.28571C3.14907 2.875 2.05898 3.32935 1.25526 4.1381C0.451529 4.94685 0 6.04375 0 7.1875L0 38.8125C0 39.9562 0.451529 41.0531 1.25526 41.8619C2.05898 42.6707 3.14907 43.125 4.28571 43.125H35.7143C36.8509 43.125 37.941 42.6707 38.7447 41.8619C39.5485 41.0531 40 39.9562 40 38.8125V7.1875C40 6.04375 39.5485 4.94685 38.7447 4.1381C37.941 3.32935 36.8509 2.875 35.7143 2.875ZM34.1857 28.9297C34.0705 31.2324 33.5482 33.2727 31.8777 34.9492C30.2071 36.6257 28.1813 37.1621 25.8955 37.2717C23.5375 37.4055 16.4679 37.4055 14.1098 37.2717C11.8214 37.1558 9.80089 36.6293 8.12768 34.9492C6.45446 33.2691 5.92857 31.2279 5.81964 28.9297C5.68661 26.556 5.68661 19.4413 5.81964 17.0703C5.93482 14.7676 6.45089 12.7273 8.12768 11.0508C9.80446 9.3743 11.8304 8.84422 14.1098 8.73461C16.4679 8.60074 23.5375 8.60074 25.8955 8.73461C28.1839 8.85051 30.2107 9.37699 31.8777 11.0571C33.5446 12.7371 34.0768 14.7784 34.1857 17.0811C34.3188 19.4458 34.3188 26.5542 34.1857 28.9297Z" fill="white"/>
</g>
<defs>
<clipPath id="clip0_2_21">
<rect width="40" height="46" fill="white"/>
</clipPath>
</defs>
</svg>
