<svg width="39" height="40" viewBox="0 0 39 40" fill="none" xmlns="http://www.w3.org/2000/svg">
<path d="M19.5 0.625C8.73569 0.625 0 9.30469 0 20C0 30.6953 8.73569 39.375 19.5 39.375C30.2643 39.375 39 30.6953 39 20C39 9.30469 30.2643 0.625 19.5 0.625ZM27.4179 29.1328C27.0877 29.1328 26.8833 29.0312 26.5766 28.8516C21.6702 25.9141 15.9617 25.7891 10.324 26.9375C10.0173 27.0156 9.61633 27.1406 9.38831 27.1406C8.6256 27.1406 8.14597 26.5391 8.14597 25.9062C8.14597 25.1016 8.6256 24.7188 9.21532 24.5938C15.655 23.1797 22.2363 23.3047 27.8504 26.6406C28.33 26.9453 28.6131 27.2188 28.6131 27.9297C28.6131 28.6406 28.0548 29.1328 27.4179 29.1328ZM29.5331 24.0078C29.1242 24.0078 28.849 23.8281 28.5659 23.6797C23.6516 20.7891 16.3234 19.625 9.80504 21.3828C9.42762 21.4844 9.22319 21.5859 8.86936 21.5859C8.02802 21.5859 7.34395 20.9062 7.34395 20.0703C7.34395 19.2344 7.75282 18.6797 8.5627 18.4531C10.7486 17.8438 12.9817 17.3906 16.2526 17.3906C21.3556 17.3906 26.2857 18.6484 30.17 20.9453C30.8069 21.3203 31.0585 21.8047 31.0585 22.4844C31.0506 23.3281 30.3901 24.0078 29.5331 24.0078ZM31.9706 18.0547C31.5617 18.0547 31.3101 17.9531 30.9563 17.75C25.3579 14.4297 15.3484 13.6328 8.86936 15.4297C8.58629 15.5078 8.23246 15.6328 7.85504 15.6328C6.81714 15.6328 6.02298 14.8281 6.02298 13.7891C6.02298 12.7266 6.68347 12.125 7.39113 11.9219C10.1589 11.1172 13.2569 10.7344 16.63 10.7344C22.37 10.7344 28.3851 11.9219 32.7804 14.4688C33.3937 14.8203 33.7948 15.3047 33.7948 16.2344C33.7948 17.2969 32.9298 18.0547 31.9706 18.0547Z" fill="white"/>
</svg>
